# xmcd
#
# Track frame offsets:
#	150
#	14698
#	30252
#	51449
#	69831
#	91276
#	110782
#	127485
#	148916
#	166844
#
# Disc length: 2606 seconds
#
# Revision: 0
# Processed by: cddbd v1.5.2PL0 Copyright (c) Steve Scherf et al.
# Submitted via: EZCDAudioConverter 1.0.7.1
#
DISCID=900a2c0a
DTITLE=Wanda Walden - Searchin' For Love
DYEAR=2013
DGENRE=Soul
TTITLE0=Searchin' For Love
TTITLE1=Take Your Heart
TTITLE2=Don't You Want My Lovin' 
TTITLE3=Lost And Found
TTITLE4=Wanna Love You Tonite
TTITLE5=Holdin' On
TTITLE6=Just  To Love You
TTITLE7=It's Gone Now
TTITLE8=Don't You Want My Lovin' (7" Version) Bonus Track
TTITLE9=I Must Be Dreamin' (12" Version) Bonus Track
EXTD=
EXTT0=
EXTT1=
EXTT2=
EXTT3=
EXTT4=
EXTT5=
EXTT6=
EXTT7=
EXTT8=
EXTT9=
PLAYORDER=
